<?xml version="1.0" standalone="no"?>
<!DOCTYPE svg PUBLIC "-//W3C//DTD SVG 20010904//EN"
 "http://www.w3.org/TR/2001/REC-SVG-20010904/DTD/svg10.dtd">
<svg version="1.0" xmlns="http://www.w3.org/2000/svg"
 width="360.000000pt" height="360.000000pt" viewBox="0 0 360.000000 360.000000"
 preserveAspectRatio="xMidYMid meet">

<g transform="translate(0.000000,360.000000) scale(0.100000,-0.100000)"
fill="#000000" stroke="none">
<path d="M0 1800 l0 -1800 1800 0 1800 0 0 1800 0 1800 -1800 0 -1800 0 0
-1800z m1908 919 c26 8 34 6 42 -7 8 -15 11 -15 20 -2 8 13 10 13 10 -2 0 -25
26 -23 33 2 3 11 10 20 15 20 18 0 72 -77 72 -102 0 -14 9 -33 20 -43 11 -10
17 -21 15 -25 -3 -4 2 -13 9 -20 8 -6 18 -26 22 -43 3 -18 10 -37 15 -42 4 -6
8 -28 7 -50 0 -22 2 -47 4 -55 2 -12 -17 -15 -119 -16 -68 -1 -123 2 -123 6 0
4 -10 10 -22 13 -18 5 -19 8 -8 21 15 19 71 20 122 2 21 -8 42 -10 50 -5 11 7
10 9 -1 9 -8 0 -12 3 -8 6 12 12 -23 64 -55 80 -24 12 -45 14 -96 9 -36 -4
-71 -9 -78 -12 -6 -2 -18 3 -25 12 -8 9 -24 26 -36 37 -17 16 -20 25 -13 39
16 28 12 59 -5 53 -9 -4 -15 0 -15 10 0 9 5 16 10 16 18 0 11 20 -7 21 -15 0
-16 1 -2 7 8 4 22 13 30 20 27 25 74 49 80 41 3 -5 19 -5 37 0z m-234 -237
c-8 -2 -14 -8 -14 -13 0 -5 5 -8 11 -6 6 1 14 -4 16 -10 3 -8 -4 -13 -16 -13
-24 0 -26 15 -8 53 10 22 13 23 18 9 4 -10 1 -18 -7 -20z m586 -142 c0 -5 -4
-10 -9 -10 -5 0 -13 -10 -17 -22 -5 -18 -8 -19 -15 -5 -5 8 -6 22 -3 31 7 17
44 22 44 6z m-140 -30 c12 -8 12 -14 -5 -46 -11 -20 -26 -50 -34 -66 -15 -28
-35 -36 -46 -18 -3 6 -21 10 -40 10 -19 0 -37 5 -40 10 -3 6 -2 10 2 10 5 0
14 13 19 29 10 25 16 29 54 29 54 1 73 23 30 35 -17 4 -30 10 -30 12 0 9 75 5
90 -5z m-320 -10 c-8 -5 -22 -9 -30 -9 -10 0 -8 3 5 9 27 12 43 12 25 0z m409
-90 c0 -44 2 -84 6 -89 3 -5 0 -13 -6 -16 -5 -4 -8 -14 -4 -23 3 -8 1 -18 -4
-21 -6 -4 -5 -26 1 -58 6 -29 14 -50 19 -47 5 3 9 0 9 -5 0 -6 -4 -11 -10 -11
-5 0 -10 -9 -10 -20 0 -11 -4 -20 -9 -20 -5 0 -11 -13 -14 -28 -3 -17 -12 -29
-21 -29 -21 0 -20 14 2 26 14 9 15 12 3 20 -7 5 -10 14 -6 21 6 9 3 9 -14 1
-13 -7 -21 -22 -22 -39 -1 -30 -69 -98 -69 -69 0 19 -72 77 -94 77 -10 0 -30
-7 -45 -15 -40 -20 -101 -2 -101 31 0 12 -3 29 -6 38 -5 12 1 16 24 16 43 0
62 9 62 31 0 22 -36 39 -81 39 -30 0 -85 42 -75 58 3 5 6 34 7 65 1 33 7 57
13 57 6 0 27 -21 46 -46 19 -25 47 -60 63 -79 15 -18 27 -38 27 -44 0 -6 8
-14 18 -18 9 -3 30 -15 46 -27 29 -19 29 -19 22 0 -13 33 -12 38 9 40 57 4 75
23 75 83 0 18 -4 22 -17 16 -10 -4 -34 -9 -53 -11 -33 -4 -33 -4 8 10 51 17
86 50 108 101 10 24 18 34 23 27 5 -8 15 -2 30 18 12 17 26 28 31 25 5 -3 9
-41 9 -85z m-364 40 c15 -29 35 -40 35 -20 0 6 9 1 20 -10 20 -20 28 -46 11
-35 -5 3 -16 -2 -25 -10 -9 -9 -17 -11 -21 -5 -10 16 -28 12 -21 -5 8 -22 -2
-18 -15 6 -6 12 -7 19 -1 15 17 -10 23 25 7 40 -8 9 -15 12 -15 8 0 -5 -5 -3
-11 3 -13 13 -5 43 10 43 6 0 17 -13 26 -30z m-60 -1 c10 -15 2 -19 -23 -12
-12 3 -19 9 -16 14 7 12 31 11 39 -2z m478 -62 c-5 -127 -8 -150 -20 -154 -10
-4 -13 15 -13 71 0 49 4 76 11 76 6 0 9 8 6 18 -20 61 -20 62 -1 62 17 0 19
-8 17 -73z m-653 19 c0 -3 -4 -8 -10 -11 -5 -3 -10 -1 -10 4 0 6 5 11 10 11 6
0 10 -2 10 -4z m35 -36 c-3 -5 -13 -10 -21 -10 -8 0 -14 5 -14 10 0 6 9 10 21
10 11 0 17 -4 14 -10z m240 -50 c3 -5 2 -10 -4 -10 -5 0 -13 5 -16 10 -3 6 -2
10 4 10 5 0 13 -4 16 -10z m342 -142 c-3 -7 -5 -2 -5 12 0 14 2 19 5 13 2 -7
2 -19 0 -25z m-604 -13 c-3 -9 -8 -14 -10 -11 -3 3 -2 9 2 15 9 16 15 13 8 -4z
m165 -104 c-16 -6 -31 16 -24 36 7 16 9 16 21 -7 9 -16 10 -26 3 -29z m339
-57 c-3 -3 -12 -4 -19 -1 -8 3 -5 6 6 6 11 1 17 -2 13 -5z m-126 -42 c-6 -2
-11 -9 -11 -16 0 -7 -11 -18 -24 -24 -22 -10 -23 -8 -22 16 2 44 13 53 42 40
15 -7 21 -14 15 -16z m-121 -2 c-8 -5 -22 -9 -30 -9 -10 0 -8 3 5 9 27 12 43
12 25 0z m246 -187 c-8 -15 -15 -25 -16 -21 0 12 23 58 27 54 3 -2 -2 -17 -11
-33z m-167 -249 c125 -99 182 -151 206 -187 14 -21 23 -42 20 -47 -3 -4 3 -14
13 -21 16 -13 16 -12 2 6 -12 17 -12 18 0 7 8 -7 15 -18 16 -25 0 -7 2 -20 2
-31 1 -11 7 -16 16 -13 8 3 20 -2 28 -11 8 -9 8 -13 1 -9 -20 13 -27 -33 -8
-52 17 -15 17 -15 11 3 -6 19 -6 19 12 3 10 -9 21 -14 24 -11 3 3 9 0 14 -7 4
-7 3 -10 -4 -5 -6 4 -10 -1 -9 -13 1 -15 4 -17 14 -9 9 7 13 7 13 -1 0 -7 4
-10 9 -7 5 4 7 -3 4 -14 -3 -12 0 -20 6 -20 7 0 9 5 5 13 -5 8 -2 8 9 -2 18
-14 23 -26 8 -17 -5 3 -11 -1 -15 -9 -3 -8 0 -17 6 -21 7 -4 8 -3 4 4 -4 7 -3
12 3 12 5 0 13 -4 16 -10 3 -5 11 -10 17 -10 6 0 5 7 -3 18 -7 9 3 2 24 -17
20 -19 34 -38 31 -43 -3 -4 2 -11 10 -14 9 -3 13 -10 10 -15 -3 -5 0 -8 8 -7
7 2 12 -2 11 -9 -2 -7 4 -10 13 -6 12 5 13 7 3 14 -8 4 -11 11 -7 14 7 7 48
-43 48 -59 -1 -6 -6 -1 -13 12 -7 12 -16 20 -19 16 -4 -3 9 -22 28 -42 28 -29
32 -38 21 -50 -10 -13 -9 -15 7 -8 20 7 20 7 0 -15 -10 -12 -13 -19 -6 -15 13
8 16 -3 4 -20 -9 -14 -103 -27 -137 -18 -14 3 -25 12 -25 20 0 7 -12 19 -27
26 -36 18 -53 46 -34 58 12 7 7 13 -22 30 -20 12 -37 26 -37 31 0 5 -12 9 -27
9 -14 0 -42 12 -62 27 -20 16 -40 27 -44 25 -5 -1 -6 1 -3 6 3 5 -9 16 -26 26
-19 12 -26 21 -19 25 14 9 -13 35 -46 45 -17 6 -23 3 -23 -8 0 -19 -13 -20
-43 -5 -14 8 -22 8 -25 1 -2 -6 -14 -5 -32 5 -17 8 -45 16 -62 19 -18 2 -34 8
-36 12 -1 5 -14 7 -29 4 -17 -3 -24 -1 -19 6 3 6 2 13 -4 17 -27 17 9 22 115
17 110 -5 115 -4 115 15 0 24 -96 121 -127 129 -15 4 -22 13 -20 27 1 16 -4
22 -22 23 -14 1 -30 9 -36 18 -15 20 -36 21 -29 2 8 -20 -53 -31 -103 -20 -21
4 -46 7 -55 6 -10 -1 -18 2 -18 6 0 9 89 28 177 38 61 6 64 5 129 -35 37 -23
71 -40 76 -39 5 2 -24 37 -66 78 -41 41 -72 78 -70 82 5 7 -28 13 -50 9 -46
-9 -162 -8 -173 1 -10 8 -13 6 -13 -11 0 -20 -10 -27 -23 -15 -10 10 5 35 27
44 19 8 19 9 -6 9 -37 1 -45 19 -13 31 42 16 65 13 59 -7 -4 -14 -2 -13 7 2
21 34 31 36 133 30 99 -6 99 -6 155 -51z m-404 -24 c4 -6 4 -24 0 -40 -5 -24
-11 -28 -36 -28 -38 1 -44 11 -23 43 16 24 16 25 -1 18 -13 -4 -16 -3 -11 5 9
15 62 16 71 2z m35 -139 c0 -5 -9 -7 -20 -4 -14 4 -20 0 -20 -11 0 -16 -37
-36 -66 -36 -12 0 -12 4 -4 20 6 11 7 20 3 21 -4 0 1 4 12 9 27 12 95 12 95 1z
m160 -231 c-8 -5 -19 -10 -25 -10 -5 0 -3 5 5 10 8 5 20 10 25 10 6 0 3 -5 -5
-10z"/>
<path d="M2068 1935 c-9 -9 4 -65 14 -59 6 4 8 -2 3 -15 -4 -15 -2 -21 8 -21
19 0 27 73 10 89 -13 12 -26 14 -35 6z"/>
<path d="M2256 903 c-3 -8 -2 -12 3 -8 5 3 11 0 13 -7 3 -7 7 -3 10 8 6 23
-18 30 -26 7z"/>
<path d="M2424 795 c8 -8 18 -15 22 -15 3 0 1 7 -6 15 -7 8 -17 15 -22 15 -5
0 -3 -7 6 -15z"/>
</g>
</svg>
